HIERARCHY
ROOT Hips
{
	OFFSET 0.000000 0.000000 0.000000
	CHANNELS 6 Xposition Yposition Zposition Zrotation Yrotation Xrotation 
	JOINT LowerBack
	{
		OFFSET 0.000000 0.000000 0.000000
		CHANNELS 3 Zrotation Yrotation Xrotation
		JOINT Spine
		{
			OFFSET 0.028270 2.035590 -0.193380
			CHANNELS 3 Zrotation Yrotation Xrotation
			JOINT Spine1
			{
				OFFSET 0.056720 2.048850 -0.042750
				CHANNELS 3 Zrotation Yrotation Xrotation
				JOINT Neck
				{
					OFFSET 0.000000 0.000000 0.000000
					CHANNELS 3 Zrotation Yrotation Xrotation
					JOINT Neck1
					{
						OFFSET -0.054170 1.746240 0.172020
						CHANNELS 3 Zrotation Yrotation Xrotation
						JOINT Head
						{
							OFFSET 0.104070 1.761360 -0.123970
							CHANNELS 3 Zrotation Yrotation Xrotation
							End Site
							{
								OFFSET 0.000000 0.000000 0.000000
							}
						}
					}
				}
				JOINT LeftShoulder
				{
					OFFSET 0.000000 0.000000 0.000000
					CHANNELS 3 Zrotation Yrotation Xrotation
					JOINT LeftArm
					{
						OFFSET 3.362410 1.200890 -0.311210
						CHANNELS 3 Zrotation Yrotation Xrotation
						JOINT LeftForeArm
						{
							OFFSET 4.983000 -0.000000 -0.000000
							CHANNELS 3 Zrotation Yrotation Xrotation
							JOINT LeftHand
							{
								OFFSET 3.483560 -0.000000 -0.000000
								CHANNELS 3 Zrotation Yrotation Xrotation
								JOINT LeftFingerBase
								{
									OFFSET 0.000000 0.000000 0.000000
									CHANNELS 3 Zrotation Yrotation Xrotation
									JOINT LeftHandIndex1
									{
										OFFSET 0.715260 -0.000000 -0.000000
										CHANNELS 3 Zrotation Yrotation Xrotation
										End Site
										{
											OFFSET 0.000000 0.000000 0.000000
										}
									}
								}
								JOINT LThumb
								{
									OFFSET 0.000000 0.000000 0.000000
									CHANNELS 3 Zrotation Yrotation Xrotation
									End Site
									{
										OFFSET 0.000000 0.000000 0.000000
									}
								}
							}
						}
					}
				}
				JOINT RightShoulder
				{
					OFFSET 0.000000 0.000000 0.000000
					CHANNELS 3 Zrotation Yrotation Xrotation
					JOINT RightArm
					{
						OFFSET -3.136600 1.374050 -0.404650
						CHANNELS 3 Zrotation Yrotation Xrotation
						JOINT RightForeArm
						{
							OFFSET -5.241900 -0.000000 -0.000000
							CHANNELS 3 Zrotation Yrotation Xrotation
							JOINT RightHand
							{
								OFFSET -3.444170 -0.000000 -0.000000
								CHANNELS 3 Zrotation Yrotation Xrotation
								JOINT RightFingerBase
								{
									OFFSET 0.000000 0.000000 0.000000
									CHANNELS 3 Zrotation Yrotation Xrotation
									JOINT RightHandIndex1
									{
										OFFSET -0.622530 -0.000000 -0.000000
										CHANNELS 3 Zrotation Yrotation Xrotation
										End Site
										{
											OFFSET 0.000000 0.000000 0.000000
										}
									}
								}
								JOINT RThumb
								{
									OFFSET 0.000000 0.000000 0.000000
									CHANNELS 3 Zrotation Yrotation Xrotation
									End Site
									{
										OFFSET 0.000000 0.000000 0.000000
									}
								}
							}
						}
					}
				}
			}
		}
	}
}
}
MOTION
Frames: 14
Frame Time: 0.008333
0.491279 17.253264 -2.547305 157.686900 -82.885496 -144.427965 0.011308 -3.051248 -7.825641 -0.386763 -3.376049 -3.891822 -5.773079 -3.487185 2.428124 9.964175 -13.362039 -10.669690 -2.897953 -0.202449 -0.720879 0.000000 0.000000 0.000000 -1.286212 12.502232 1.250371 -76.558099 13.364013 -1.583230 -3.686287 -20.914798 0.001029 0.215202 -0.220129 -0.000236 -0.096101 -0.034928 -0.000000 0.000000 0.000000 0.000000 0.000000 0.000000 0.000000 14.951500 -10.909251 0.918611 74.063478 -1.496628 -18.143303 4.388859 8.123259 0.011987 2.380252 4.166418 0.084216 0.114504 -0.068515 -0.000000 0.000000 0.000000 0.000000 0.000000 0.000000 0.000000 
0.518895 17.257757 -2.567631 154.547587 -82.662490 -141.643379 -0.254098 -3.142464 -7.593402 -0.419765 -3.431535 -3.849235 -5.694883 -3.546133 2.383642 9.769782 -13.290389 -10.620916 -2.877782 -0.200870 -0.709729 0.000000 0.000000 0.000000 -1.143039 12.309619 1.290579 -77.096470 13.688087 -1.279425 -3.676605 -20.873221 0.000765 0.107538 -0.114505 0.000154 -0.094764 -0.035905 -0.000000 0.000000 0.000000 0.000000 0.000000 0.000000 0.000000 14.691696 -10.878721 0.921255 74.002491 -1.582211 -17.567376 4.395923 8.265381 0.012024 2.380399 4.157890 0.084015 0.115851 -0.067542 -0.000000 0.000000 0.000000 0.000000 0.000000 0.000000 0.000000 
0.548598 17.262691 -2.586696 151.643629 -82.394793 -139.131181 -0.525467 -3.217966 -7.325210 -0.456532 -3.469767 -3.801863 -5.617226 -3.587436 2.331501 9.565674 -13.202999 -10.559762 -2.858270 -0.199450 -0.695747 0.000000 0.000000 0.000000 -0.992210 12.093420 1.329672 -77.616635 13.996894 -0.932072 -3.667604 -20.861249 0.000472 -0.030124 -0.001493 0.000244 -0.093325 -0.036993 -0.000000 0.000000 0.000000 0.000000 0.000000 0.000000 0.000000 14.419996 -10.824806 0.925870 73.934200 -1.628729 -16.942336 4.400522 8.415781 0.012132 2.378392 4.181755 0.084315 0.117151 -0.066775 -0.000000 0.000000 0.000000 0.000000 0.000000 0.000000 0.000000 
0.579875 17.268078 -2.604675 148.969484 -82.088313 -136.875043 -0.807474 -3.277423 -7.031565 -0.498138 -3.490562 -3.751540 -5.541404 -3.610916 2.272866 9.356973 -13.100474 -10.485205 -2.840296 -0.198303 -0.678541 0.000000 0.000000 0.000000 -0.828178 11.854295 1.366200 -78.116231 14.291897 -0.545973 -3.659668 -20.878640 0.000164 -0.193808 0.109702 0.000135 -0.091809 -0.038197 -0.000000 0.000000 0.000000 0.000000 0.000000 0.000000 0.000000 14.145275 -10.748394 0.931881 73.857275 -1.643615 -16.281867 4.402624 8.572837 0.012298 2.374906 4.231852 0.085115 0.118376 -0.066174 -0.000000 0.000000 0.000000 0.000000 0.000000 0.000000 0.000000 
0.612426 17.273925 -2.621804 146.485185 -81.753285 -134.825229 -1.104181 -3.322252 -6.725652 -0.545393 -3.495625 -3.700848 -5.468731 -3.618336 2.207639 9.148185 -12.977952 -10.394840 -2.825093 -0.197594 -0.657305 0.000000 0.000000 0.000000 -0.644784 11.589467 1.399454 -78.594072 14.578774 -0.135922 -3.653098 -20.927847 -0.000146 -0.376649 0.212895 -0.000375 -0.090250 -0.039504 -0.000000 0.000000 0.000000 0.000000 0.000000 0.000000 0.000000 13.875582 -10.645157 0.938632 73.772969 -1.638557 -15.623946 4.402280 8.732093 0.012511 2.373686 4.303372 0.086417 0.119472 -0.065749 -0.000000 0.000000 0.000000 0.000000 0.000000 0.000000 0.000000 
0.645813 17.280125 -2.638339 144.162102 -81.398644 -132.937862 -1.419777 -3.353599 -6.419488 -0.598808 -3.486258 -3.650325 -5.398969 -3.610991 2.143376 8.948559 -12.863431 -10.297195 -2.811484 -0.197131 -0.634237 0.000000 0.000000 0.000000 -0.432088 11.313603 1.426495 -79.050371 14.839157 0.290709 -3.648476 -20.991622 -0.000429 -0.566347 0.295955 -0.001183 -0.088748 -0.040842 -0.000000 0.000000 0.000000 0.000000 0.000000 0.000000 0.000000 13.624267 -10.545625 0.944673 73.670988 -1.596359 -14.873728 4.398633 8.900845 0.012731 2.351783 4.387055 0.087220 0.120587 -0.065264 -0.000000 0.000000 0.000000 0.000000 0.000000 0.000000 0.000000 
0.679812 17.286586 -2.654533 141.940223 -81.038861 -131.143589 -1.754115 -3.374728 -6.126203 -0.658310 -3.466347 -3.603797 -5.333938 -3.592960 2.074823 8.757640 -12.726901 -10.183644 -2.801817 -0.197245 -0.606832 0.000000 0.000000 0.000000 -0.184955 11.013705 1.449602 -79.487409 15.093147 0.702250 -3.645727 -21.081603 -0.000689 -0.753335 0.362813 -0.002191 -0.087338 -0.042183 -0.000000 0.000000 0.000000 0.000000 0.000000 0.000000 0.000000 13.391128 -10.419477 0.950064 73.563900 -1.550814 -14.158557 4.392142 9.071456 0.012966 2.327733 4.480323 0.088024 0.121557 -0.064892 -0.000000 0.000000 0.000000 0.000000 0.000000 0.000000 0.000000 
0.714063 17.293122 -2.670576 139.788375 -80.684880 -129.397135 -2.107064 -3.387833 -5.855079 -0.723347 -3.438410 -3.561515 -5.272860 -3.566822 2.008624 8.581284 -12.588276 -10.062615 -2.794476 -0.197695 -0.577308 0.000000 0.000000 0.000000 0.105452 10.706893 1.467539 -79.906606 15.320613 1.090064 -3.645266 -21.179724 -0.000910 -0.924435 0.409866 -0.003097 -0.086139 -0.043429 -0.000000 0.000000 0.000000 0.000000 0.000000 0.000000 0.000000 13.181769 -10.288939 0.953617 73.448550 -1.486428 -13.426387 4.382178 9.241976 0.013198 2.284649 4.581092 0.088127 0.122493 -0.064522 -0.000000 0.000000 0.000000 0.000000 0.000000 0.000000 0.000000 
0.748653 17.299539 -2.686670 137.666847 -80.345169 -127.652079 -2.478536 -3.395250 -5.612164 -0.793723 -3.404979 -3.525153 -5.216385 -3.535235 1.942663 8.420110 -12.437324 -9.932734 -2.789944 -0.198542 -0.545231 0.000000 0.000000 0.000000 0.443190 10.387193 1.481819 -80.310308 15.528668 1.430851 -3.647031 -21.290075 -0.001092 -1.070103 0.442458 -0.004001 -0.085209 -0.044536 -0.000000 0.000000 0.000000 0.000000 0.000000 0.000000 0.000000 12.995361 -10.143564 0.955974 73.333517 -1.417774 -12.719464 4.368364 9.414018 0.013418 2.223296 4.685802 0.087531 0.123362 -0.064212 -0.000000 0.000000 0.000000 0.000000 0.000000 0.000000 0.000000 
0.783672 17.305575 -2.702933 135.549043 -80.025201 -125.876777 -2.867915 -3.398830 -5.398713 -0.869079 -3.367923 -3.494981 -5.164499 -3.500132 1.876829 8.274846 -12.273382 -9.796430 -2.787620 -0.199699 -0.511274 0.000000 0.000000 0.000000 0.830356 10.054852 1.493557 -80.698887 15.715939 1.712998 -3.650959 -21.411862 -0.001234 -1.183002 0.466530 -0.004703 -0.084609 -0.045463 -0.000000 0.000000 0.000000 0.000000 0.000000 0.000000 0.000000 12.829605 -9.982773 0.957920 73.226384 -1.346121 -12.051685 4.350205 9.584206 0.013629 2.138887 4.795704 0.085935 0.124175 -0.064011 -0.000000 0.000000 0.000000 0.000000 0.000000 0.000000 0.000000 
0.819412 17.311009 -2.719450 133.427628 -79.728748 -124.063743 -3.272177 -3.399709 -5.209442 -0.948491 -3.328367 -3.469329 -5.116140 -3.462605 1.814011 8.145346 -12.104751 -9.660404 -2.785765 -0.200910 -0.477371 0.000000 0.000000 0.000000 1.267691 9.723123 1.503389 -81.069986 15.862635 1.947712 -3.656881 -21.531656 -0.001335 -1.257489 0.485648 -0.005204 -0.084396 -0.046144 -0.000000 0.000000 0.000000 0.000000 0.000000 0.000000 0.000000 12.679639 -9.815092 0.959682 73.132431 -1.257270 -11.410391 4.327237 9.742711 0.013840 2.022177 4.917065 0.083041 0.124991 -0.063956 -0.000000 0.000000 0.000000 0.000000 0.000000 0.000000 0.000000 
0.856281 17.315705 -2.736341 131.288505 -79.453367 -122.202990 -3.693034 -3.398582 -5.035241 -1.032527 -3.286589 -3.447753 -5.072461 -3.422896 1.748448 8.029149 -11.919743 -9.522230 -2.784845 -0.202232 -0.442979 0.000000 0.000000 0.000000 1.747443 9.373714 1.513401 -81.418683 15.983892 2.128489 -3.664302 -21.664457 -0.001406 -1.295620 0.507777 -0.005702 -0.084527 -0.046614 -0.000000 0.000000 0.000000 0.000000 0.000000 0.000000 0.000000 12.540197 -9.627405 0.964124 73.064432 -1.160707 -10.838599 4.299026 9.887136 0.014054 1.876018 5.051549 0.078646 0.125756 -0.064180 -0.000000 0.000000 0.000000 0.000000 0.000000 0.000000 0.000000 
0.894908 17.319613 -2.753816 129.119582 -79.192867 -120.292615 -4.134606 -3.395773 -4.862564 -1.122205 -3.242270 -3.428739 -5.034299 -3.380583 1.675026 7.924299 -11.717071 -9.380947 -2.784661 -0.203643 -0.407979 0.000000 0.000000 0.000000 2.257314 8.985764 1.524385 -81.735725 16.095310 2.257302 -3.672580 -21.828188 -0.001462 -1.303011 0.538749 -0.005998 -0.084918 -0.046942 -0.000000 0.000000 0.000000 0.000000 0.000000 0.000000 0.000000 12.406358 -9.417831 0.974567 73.032701 -1.050825 -10.365346 4.265329 10.003191 0.014292 1.702863 5.205711 0.073053 0.126432 -0.064829 -0.000000 0.000000 0.000000 0.000000 0.000000 0.000000 0.000000 
0.935906 17.322720 -2.771558 126.968526 -78.949076 -118.391501 -4.587110 -3.389928 -4.669602 -1.215644 -3.194443 -3.407310 -5.000734 -3.334366 1.597325 7.827925 -11.503065 -9.244019 -2.783964 -0.204894 -0.374753 0.000000 0.000000 0.000000 2.789126 8.583710 1.537311 -82.011346 16.153055 2.387372 -3.681260 -21.985685 -0.001491 -1.283635 0.570345 -0.006293 -0.085543 -0.047045 -0.000000 0.000000 0.000000 0.000000 0.000000 0.000000 0.000000 12.272802 -9.191812 0.990629 73.038431 -0.908361 -9.941765 4.225662 10.089955 0.014545 1.491088 5.383001 0.065360 0.127091 -0.065856 -0.000000 0.000000 0.000000 0.000000 0.000000 0.000000 0.000000 
